<svg xmlns="http://www.w3.org/2000/svg" width="134" height="55" viewBox="0 0 134 55" fill="none"><path d="M43.8099 13.822C43.797 13.276 43.4071 12.8038 42.8598 12.73C40.3126 12.381 37.799 11.7712 35.3367 10.8692C32.8847 9.96979 30.1731 8.71622 27.2468 7.0657C26.8757 6.85579 26.5264 6.85579 26.1554 7.0657C23.2479 8.71622 20.5554 9.96721 18.0842 10.8692C15.6216 11.7671 13.1083 12.381 10.5822 12.73C10.0345 12.8064 9.65128 13.2756 9.59005 13.822C9.34773 24.1996 11.6208 32.6898 16.3865 39.2915C18.982 42.8865 22.2307 45.8047 26.1554 48.0281C26.4586 48.2513 26.9325 48.2347 27.2866 48.0281C31.18 45.767 34.4246 42.8699 37.0156 39.2915C41.7872 32.6942 44.0415 24.1996 43.8099 13.822Z" fill="#BCBCBC"></path><path d="M35.1951 38.0168C32.9433 41.1272 30.1177 43.7206 26.7009 45.8046C23.2814 43.7206 20.444 41.1353 18.2067 38.0168C13.8707 31.9729 11.7558 24.2401 11.8355 14.8147C14.2226 14.4292 16.5882 13.7821 18.9543 12.9115C21.32 12.0416 23.9096 10.8485 26.7009 9.33191C29.4922 10.8485 32.0604 12.0416 34.4261 12.9115C36.7921 13.7821 39.1792 14.4292 41.5659 14.8147C41.6463 24.3017 39.5159 32.0426 35.1951 38.0168Z" fill="#3DC500"></path><path d="M50.6694 14.0378C50.5418 14.1425 50.478 14.2816 50.478 14.4546C50.478 14.6277 50.5558 14.7649 50.7118 14.8667C50.8675 14.9685 51.2271 15.0895 51.7914 15.2279C52.3549 15.367 52.7931 15.5754 53.1052 15.8528C53.4168 16.1306 53.5728 16.5361 53.5728 17.0688C53.5728 17.6015 53.3729 18.0338 52.9735 18.3655C52.5737 18.6968 52.0481 18.8628 51.3967 18.8628C50.4558 18.8628 49.6083 18.5145 48.8547 17.8173L49.6455 16.8478C50.2858 17.4089 50.8781 17.6896 51.4218 17.6896C51.6656 17.6896 51.857 17.6369 51.9957 17.5321C52.1348 17.4273 52.2041 17.2857 52.2041 17.1071C52.2041 16.9289 52.1303 16.7873 51.9828 16.6821C51.8356 16.5774 51.5439 16.4711 51.1072 16.3634C50.416 16.1992 49.91 15.9853 49.5902 15.7215C49.27 15.4581 49.1096 15.0442 49.1096 14.4801C49.1096 13.9164 49.3121 13.4811 49.7171 13.1752C50.1224 12.869 50.6284 12.7159 51.2344 12.7159C51.6309 12.7159 52.0278 12.7842 52.425 12.9203C52.8212 13.0561 53.1671 13.249 53.4618 13.498L52.7905 14.4675C52.2749 14.0761 51.742 13.8806 51.1924 13.8806C50.9715 13.8802 50.797 13.933 50.6694 14.0378Z" fill="#4C4C4C"></path><path d="M58.0353 18.7954H56.8366V18.2427C56.5076 18.6563 56.1012 18.8633 55.6165 18.8633C55.1319 18.8633 54.7254 18.7231 54.3968 18.4423C54.0678 18.1619 53.9037 17.7879 53.9037 17.3201C53.9037 16.8523 54.0737 16.5026 54.4138 16.2698C54.7538 16.0377 55.2185 15.9212 55.8076 15.9212H56.7599V15.8961C56.7599 15.4087 56.5017 15.1653 55.9861 15.1653C55.7648 15.1653 55.5313 15.2088 55.2849 15.2966C55.0382 15.3844 54.8302 15.4936 54.6601 15.6242L54.0907 14.7993C54.6911 14.3629 55.3768 14.1448 56.1476 14.1448C56.7031 14.1448 57.1564 14.2839 57.5079 14.5613C57.8594 14.8395 58.0353 15.2785 58.0353 15.8795V18.7954ZM56.7518 17.0523V16.8309H55.9529C55.4424 16.8309 55.1876 16.9899 55.1876 17.3072C55.1876 17.4713 55.2484 17.5975 55.3705 17.6853C55.4922 17.7731 55.6667 17.817 55.8931 17.817C56.1196 17.817 56.3195 17.7477 56.4925 17.6089C56.6651 17.4702 56.7518 17.2847 56.7518 17.0523Z" fill="#4C4C4C"></path><path d="M60.2623 13.957V14.2632H61.3674V15.1815H60.2623V18.795H58.9788V15.1815H58.4433V14.2632H58.9788V13.9825C58.9788 13.4833 59.1304 13.0882 59.4336 12.7961C59.7364 12.5042 60.1137 12.3582 60.5641 12.3582C61.0144 12.3582 61.4238 12.5282 61.7923 12.8684L61.3334 13.7272C61.1464 13.5117 60.9395 13.404 60.7127 13.404C60.5821 13.404 60.4744 13.4509 60.3896 13.5442C60.3048 13.6383 60.2623 13.7759 60.2623 13.957Z" fill="#4C4C4C"></path><path d="M65.6945 18.1321C65.1789 18.6194 64.5736 18.8629 63.8795 18.8629C63.185 18.8629 62.6114 18.6493 62.1582 18.2213C61.7049 17.7934 61.478 17.2194 61.478 16.4996C61.478 15.7795 61.7085 15.2069 62.1707 14.782C62.6325 14.357 63.178 14.1441 63.8072 14.1441C64.4364 14.1441 64.9701 14.3345 65.4098 14.7137C65.8487 15.0937 66.0685 15.615 66.0685 16.2783V16.9586H62.7361C62.7756 17.2083 62.9061 17.4119 63.1274 17.5706C63.3487 17.7296 63.5977 17.8089 63.8754 17.8089C64.3232 17.8089 64.6913 17.6588 64.9805 17.3581L65.6945 18.1321ZM64.47 15.4194C64.2941 15.2722 64.0801 15.1985 63.8282 15.1985C63.5763 15.1985 63.3451 15.2748 63.1356 15.4279C62.9261 15.581 62.804 15.788 62.77 16.0484H64.7758C64.7477 15.7766 64.6459 15.5674 64.47 15.4194Z" fill="#4C4C4C"></path><path d="M71.1089 18.7953H68.5075V12.8521H70.8201C71.2225 12.8521 71.5696 12.9001 71.8613 12.9967C72.1531 13.0934 72.3729 13.2236 72.5201 13.3881C72.7864 13.6943 72.9195 14.04 72.9195 14.4255C72.9195 14.8904 72.7694 15.236 72.4688 15.4629C72.367 15.5426 72.2962 15.592 72.2563 15.6116C72.2169 15.6319 72.1457 15.6643 72.0443 15.7097C72.4124 15.789 72.7056 15.9547 72.9239 16.207C73.1423 16.4597 73.2515 16.7726 73.2515 17.1466C73.2515 17.5606 73.1095 17.9262 72.8262 18.2438C72.4976 18.6109 71.9251 18.7953 71.1089 18.7953ZM69.8339 15.2582H70.4631C70.8312 15.2582 71.1048 15.2187 71.2834 15.139C71.4619 15.0597 71.5511 14.8881 71.5511 14.6247C71.5511 14.361 71.4689 14.1865 71.3048 14.1016C71.1403 14.0168 70.8629 13.974 70.4716 13.974H69.8339V15.2582ZM69.8339 17.6731H70.7434C71.1229 17.6731 71.408 17.6262 71.5976 17.5325C71.7876 17.4392 71.8823 17.2547 71.8823 16.9799C71.8823 16.7051 71.782 16.5239 71.5806 16.4354C71.3793 16.3479 71.058 16.304 70.6158 16.304H69.8339V17.6731Z" fill="#4C4C4C"></path><path d="M76.218 15.3431C75.8385 15.3431 75.5548 15.4777 75.3678 15.747C75.1808 16.0163 75.0872 16.372 75.0872 16.8143V18.7954H73.8121V14.2208H75.0872V14.8244C75.2517 14.6373 75.4571 14.4787 75.7035 14.3481C75.9502 14.2179 76.201 14.15 76.4559 14.1441L76.4644 15.3431H76.218Z" fill="#4C4C4C"></path><path d="M81.3865 16.508C81.3865 17.1714 81.157 17.7299 80.6982 18.1829C80.239 18.6367 79.6622 18.8632 78.9684 18.8632C78.2739 18.8632 77.6978 18.637 77.2386 18.1829C76.7794 17.7295 76.55 17.1714 76.55 16.508C76.55 15.8451 76.7794 15.2855 77.2386 14.8287C77.6978 14.3728 78.2742 14.1444 78.9684 14.1444C79.6625 14.1444 80.239 14.3728 80.6982 14.8287C81.157 15.2851 81.3865 15.8451 81.3865 16.508ZM77.8331 16.508C77.8331 16.8825 77.9393 17.1872 78.1518 17.4222C78.3642 17.6579 78.6361 17.7753 78.968 17.7753C79.2992 17.7753 79.5718 17.6579 79.7839 17.4222C79.9963 17.1872 80.1025 16.8825 80.1025 16.508C80.1025 16.134 79.9963 15.8278 79.7839 15.5898C79.5718 15.3515 79.2996 15.2327 78.968 15.2327C78.6364 15.2327 78.3642 15.3515 78.1518 15.5898C77.9393 15.8281 77.8331 16.134 77.8331 16.508Z" fill="#4C4C4C"></path><path d="M84.2003 18.7953H82.8828L81.3271 14.2211H82.6446L83.5375 16.9843L84.4301 14.2211H85.6627L86.5553 16.9843L87.4478 14.2211H88.7742L87.2184 18.7953H85.8921L85.0504 16.304L84.2003 18.7953Z" fill="#4C4C4C"></path><path d="M92.4373 17.3709C92.4373 17.8218 92.2717 18.1826 91.9398 18.4548C91.6086 18.7267 91.1877 18.8625 90.6776 18.8625C90.3376 18.8625 89.9831 18.8016 89.615 18.6799C89.2466 18.5581 88.915 18.3784 88.6203 18.1401L89.1813 17.3407C89.6575 17.7092 90.1646 17.8933 90.7027 17.8933C90.8672 17.8933 90.9974 17.8609 91.0941 17.7952C91.1907 17.7303 91.2386 17.6439 91.2386 17.5362C91.2386 17.4285 91.1719 17.3289 91.0387 17.2385C90.906 17.1477 90.713 17.0629 90.4611 16.9836C90.2089 16.9043 90.016 16.8364 89.8832 16.7796C89.75 16.7228 89.5984 16.6405 89.4284 16.5328C89.0824 16.3173 88.9102 15.9986 88.9102 15.5762C88.9102 15.1538 89.0802 14.8096 89.4203 14.5428C89.7604 14.2765 90.1993 14.1433 90.7378 14.1433C91.2763 14.1433 91.8144 14.3248 92.3529 14.6875L91.8771 15.5382C91.4802 15.2663 91.0848 15.1302 90.6909 15.1302C90.297 15.1302 90.1001 15.2379 90.1001 15.4533C90.1001 15.5721 90.1624 15.6658 90.287 15.7341C90.4117 15.8019 90.6183 15.8813 90.9078 15.9724C91.1966 16.0628 91.4024 16.1325 91.5241 16.1801C91.6458 16.2284 91.7923 16.3037 91.9619 16.4055C92.2784 16.5988 92.4373 16.9205 92.4373 17.3709Z" fill="#4C4C4C"></path><path d="M93.0961 13.6383C92.9512 13.4933 92.8792 13.3166 92.8792 13.107C92.8792 12.8975 92.9512 12.7201 93.0961 12.5758C93.2407 12.4308 93.4174 12.3589 93.6272 12.3589C93.8367 12.3589 94.0141 12.4308 94.1583 12.5758C94.3029 12.7204 94.3752 12.8975 94.3752 13.107C94.3752 13.3166 94.3029 13.4937 94.1583 13.6383C94.0138 13.7829 93.8367 13.8552 93.6272 13.8552C93.4174 13.8552 93.2403 13.7829 93.0961 13.6383ZM94.2649 18.7953H92.9899V14.2208H94.2649V18.7953Z" fill="#4C4C4C"></path><path d="M96.3219 16.2447V18.7954H95.0468V14.2208H96.3219V14.731C96.7073 14.3396 97.141 14.1441 97.6224 14.1441C98.1044 14.1441 98.5079 14.3142 98.8336 14.6543C99.1597 14.9945 99.3227 15.4478 99.3227 16.0149V18.7954H98.0476V16.2104C98.0476 15.5076 97.7894 15.1564 97.2738 15.1564C97.019 15.1564 96.7962 15.2483 96.6062 15.4327C96.417 15.6168 96.3219 15.8872 96.3219 16.2447Z" fill="#4C4C4C"></path><path d="M103.437 18.0214C103.035 18.4693 102.535 18.6932 101.937 18.6932C101.339 18.6932 100.835 18.4903 100.424 18.0852C100.013 17.6798 99.807 17.139 99.807 16.4613C99.807 15.7839 100.018 15.2283 100.441 14.7949C100.863 14.361 101.346 14.1441 101.89 14.1441C102.434 14.1441 102.885 14.368 103.242 14.8159V14.212H104.517V18.1999C104.517 18.6076 104.446 18.9706 104.304 19.2882C104.163 19.6051 103.973 19.8549 103.735 20.0364C103.264 20.4105 102.709 20.5975 102.068 20.5975C101.728 20.5975 101.381 20.5426 101.027 20.4319C100.673 20.3212 100.362 20.164 100.097 19.96L100.59 18.9994C101.009 19.3167 101.452 19.4757 101.92 19.4757C102.388 19.4757 102.757 19.3594 103.029 19.127C103.301 18.8946 103.437 18.5261 103.437 18.0214ZM103.258 16.4103C103.258 16.0448 103.156 15.757 102.952 15.5471C102.748 15.3375 102.496 15.2324 102.196 15.2324C101.895 15.2324 101.636 15.3372 101.418 15.5471C101.2 15.7566 101.091 16.0433 101.091 16.4059C101.091 16.7686 101.197 17.0618 101.409 17.2861C101.622 17.5097 101.881 17.6219 102.187 17.6219C102.493 17.6219 102.748 17.5112 102.952 17.2902C103.156 17.0692 103.258 16.7759 103.258 16.4103Z" fill="#4C4C4C"></path><path d="M41.5663 14.8147C39.1792 14.4292 36.7925 13.7821 34.4264 12.9115C32.0608 12.0416 29.4926 10.8485 26.7013 9.33191C26.6507 9.35921 26.6017 9.38503 26.5515 9.41196V45.7117C26.602 45.7426 26.6511 45.7744 26.7013 45.805C30.1185 43.721 32.9437 41.1272 35.1955 38.0172C39.5159 32.0426 41.6463 24.3017 41.5663 14.8147Z" fill="#3EB500"></path><path d="M36.611 21.578C36.611 21.9067 36.4955 22.186 36.2654 22.4166L27.336 31.3487L25.6585 33.0269C25.4276 33.2575 25.1481 33.3726 24.8191 33.3726C24.4908 33.3726 24.2116 33.2575 23.9807 33.0269L22.3033 31.3487L17.8382 26.883C17.6073 26.6528 17.4926 26.3728 17.4926 26.0445C17.4926 25.7154 17.6073 25.4358 17.8382 25.2056L19.5156 23.5274C19.7454 23.2976 20.025 23.1817 20.354 23.1817C20.683 23.1817 20.9626 23.2972 21.1923 23.5274L24.8187 27.1671L32.9109 19.0613C33.1406 18.8307 33.4206 18.7156 33.7492 18.7156C34.0775 18.7156 34.3567 18.8307 34.5879 19.0613L36.265 20.7388C36.4955 20.969 36.611 21.2486 36.611 21.578Z" fill="#4A7C2F"></path><path d="M36.444 20.91C36.444 21.2383 36.3285 21.518 36.0987 21.7482L27.1689 30.6811L25.4919 32.3593C25.2606 32.5895 24.981 32.7046 24.652 32.7046C24.3241 32.7046 24.0449 32.5895 23.8137 32.3593L22.1362 30.6811L17.6712 26.2146C17.4403 25.9848 17.3259 25.7044 17.3259 25.3761C17.3259 25.047 17.4403 24.7674 17.6712 24.5372L19.3486 22.8594C19.5784 22.6292 19.858 22.5137 20.187 22.5137C20.516 22.5137 20.7955 22.6292 21.0253 22.8594L24.6517 26.4987L32.7442 18.3929C32.974 18.1623 33.2536 18.0476 33.5826 18.0476C33.9108 18.0476 34.19 18.1623 34.4209 18.3929L36.0984 20.0707C36.3289 20.3013 36.444 20.5809 36.444 20.91Z" fill="white"></path><path d="M66.0984 30.7784H57.1399V33.4368H63.4937C63.1795 37.1657 60.078 38.7558 57.1509 38.7558C53.4054 38.7558 50.1369 35.8085 50.1369 31.6767C50.1369 27.6522 53.252 24.5526 57.1587 24.5526C60.1728 24.5526 61.9487 26.4742 61.9487 26.4742L63.8102 24.5459C63.8102 24.5459 61.4209 21.8857 57.0635 21.8857C51.5152 21.8857 47.2224 26.5694 47.2224 31.6291C47.2224 36.5866 51.2599 41.4208 57.2044 41.4208C62.433 41.4208 66.2603 37.8383 66.2603 32.5407C66.2603 31.4232 66.0984 30.7773 66.0984 30.7773V30.7784Z" fill="#4885ED"></path><path d="M73.437 28.8523C69.7612 28.8523 67.127 31.7269 67.127 35.0796C67.127 38.4817 69.6823 41.4094 73.4805 41.4094C76.9192 41.4094 79.7363 38.7805 79.7363 35.1526C79.7359 30.9938 76.4589 28.8523 73.437 28.8523ZM73.4739 31.3185C75.2815 31.3185 76.9948 32.7809 76.9948 35.136C76.9948 37.4421 75.2889 38.9454 73.4658 38.9454C71.4623 38.9454 69.8815 37.3403 69.8815 35.1179C69.8811 32.9428 71.4427 31.3185 73.4739 31.3185Z" fill="#DB3236"></path><path d="M87.1616 28.8523C83.4855 28.8523 80.8513 31.7269 80.8513 35.0796C80.8513 38.4817 83.4065 41.4094 87.2051 41.4094C90.6434 41.4094 93.4609 38.7805 93.4609 35.1526C93.4605 30.9938 90.1834 28.8523 87.1616 28.8523ZM87.1981 31.3185C89.0054 31.3185 90.719 32.7809 90.719 35.136C90.719 37.4421 89.0128 38.9454 87.1896 38.9454C85.1865 38.9454 83.6061 37.3403 83.6061 35.1179C83.6061 32.9428 85.167 31.3185 87.1981 31.3185Z" fill="#F4C20D"></path><path d="M100.623 28.8589C97.2492 28.8589 94.5965 31.8151 94.5965 35.1327C94.5965 38.9119 97.6718 41.4179 100.565 41.4179C102.355 41.4179 103.305 40.7077 104.008 39.8921V41.1301C104.008 43.2964 102.693 44.5935 100.708 44.5935C98.7909 44.5935 97.829 43.1677 97.4948 42.3583L95.0823 43.3669C95.938 45.1768 97.6608 47.0645 100.728 47.0645C104.083 47.0645 106.64 44.951 106.64 40.5181V29.2363H104.008V30.2999C103.198 29.4278 102.092 28.8593 100.623 28.8589ZM100.867 31.3203C102.522 31.3203 104.22 32.7333 104.22 35.146C104.22 37.5982 102.525 38.9502 100.831 38.9502C99.0321 38.9502 97.3583 37.4893 97.3583 35.1696C97.358 32.7587 99.0966 31.3203 100.867 31.3203Z" fill="#4885ED"></path><path d="M118.342 28.8442C115.159 28.8442 112.486 31.3772 112.486 35.1147C112.486 39.0691 115.465 41.4146 118.647 41.4146C121.303 41.4146 122.933 39.9615 123.906 38.6588L121.736 37.2149C121.173 38.0889 120.231 38.9436 118.661 38.9436C116.896 38.9436 116.085 37.9767 115.582 37.0408L123.998 33.5475L123.561 32.5238C122.748 30.5187 120.852 28.8446 118.342 28.8442ZM118.451 31.2592C119.598 31.2592 120.424 31.8686 120.774 32.6002L115.153 34.9501C114.911 33.1307 116.634 31.2592 118.451 31.2592Z" fill="#DB3236"></path><path d="M108.474 41.0416H111.239V22.5353H108.474V41.0416Z" fill="#3CBA54"></path></svg>